<?xml version="1.0" encoding="utf-8"?>
<!-- Generator: Adobe Illustrator 25.0.1, SVG Export Plug-In . SVG Version: 6.00 Build 0)  -->
<svg version="1.1" id="Layer_1" xmlns="http://www.w3.org/2000/svg" xmlns:xlink="http://www.w3.org/1999/xlink" x="0px" y="0px"
	 viewBox="0 0 312.1 403.1" style="enable-background:new 0 0 312.1 403.1;" xml:space="preserve">
<style type="text/css">
	.st0{fill:#FFFFFF;}
</style>
<path class="st0" d="M123.8,336.1c-5.9,14.1-26.2,48-28.2,50.9c-2.4,3.8-3.9,10.3,0.8,13.9c5.6,4.4,13.4,1.4,16.5-3.1
	c2.2-3.2,24-39.7,33.2-55.5c2.7-4.7,5.9-7.5,10.4-10.5c8.8-5.7,17.4-8.8,26.8-13.5c1.7-0.9,5.1-2.4,6.4-1.3
	c25,21.5,66.2,22,89.4-1.6c24.8-25.1,32.6-58,33-92.8c0.1-9.4-4.9-14.3-15.6-16.9c-21.2-5-42.1-3.1-62.9,3.4
	c-19.5,6.1-36,16.3-47.3,33.3c-4.3,6.4-6.5,14.4-8.7,21.9c-1.6,5.3,1.4,9.5,7,10.5s7.7-2.6,9.7-7.4c3.2-7.5,6.3-15.9,11.9-21.4
	c23-22.8,52-26.2,82.6-23.1c4.8,0.5,5.2,3.8,4.8,7.9c-1.7,20.8-9.2,43.3-18.8,58c-15.2,23.1-43.3,31.5-67.2,17.5
	c-4.2-2.5-3.9-3.1,0.1-5.9c14.9-10.2,29.5-20.9,44.2-31.5c4.6-3.4,6.2-8.1,3-13c-3.5-5.2-8.4-5.4-13.6-2.1c-2.4,1.6-4.2,2.9-4.4,3.1
	c-4.7,4.4-75.8,49.9-77.7,49c-3.1-1.4,1.2-6.6,3.2-34c0.9-12.3-0.4-32.6-0.6-36c-0.9-15.3-8.2-47.1-5.8-52.2
	c2.4-5.2,4.1-5.2,8.9-7.4c7.6-3.4,14.9-8.2,21.2-12.9c13.1-9.8,25.8-30.1,29.6-43.1c6.8-22.8,9.2-73.2-7.5-96.2
	C204.3,18.8,192.7,0,172.8,0c-9.6,0-20.2,4.2-28.9,12c-4.9,4.4-9.3,5.8-15.5,3.4c-6.7-2.6-13.5-4.9-20.5-6.2c-5.3-1-11.1-1-16.3,0.2
	c-12,3-19.9,11.9-25.4,22.2C59.6,43.9,51,48.9,36.6,48.4C15.2,47.6-2,66.2,0.2,87.6c2,19.4,17.5,51.6,31.4,66.2
	c9.6,10,33.1,31.1,76.9,29.4c5.7-0.2,9.6-3.1,9-9.5c-0.6-6.2-5.1-8.9-10.3-9.1c-7.5-0.4-22.9-1.5-29.8-3.9
	c-33.6-12-47.3-35.5-57.2-70.1C16.1,76.3,24.8,65.8,39.6,67c19.1,1.4,31.6-6.6,40.3-22.7c1.2-2.3,2.8-4.3,4.4-6.4
	c8.2-11.1,12.9-13,25.7-8.2c17.8,6.6,33.2,10.6,49.2-4.9c3.1-3,9.7-4.6,13-4.9c9-0.9,14.1,8,16.4,10.5
	c21.7,23.8,16.8,87.9-5.6,109.3c-7.3,7-13.8,13.1-24.4,16.8c-11,3.8-18.3,9.9-21.2,16.6c-1.5,3.4-5.6,6.9-0.4,32.8
	C148.6,263,141.2,294.5,123.8,336.1z"/>
</svg>
