<svg xmlns="http://www.w3.org/2000/svg" viewBox="0 0 75.97 58.93"><defs><style>.cls-1{fill:#dbadd6;}</style></defs><g id="Layer_2" data-name="Layer 2"><g id="Layer_1-2" data-name="Layer 1"><path class="cls-1" d="M72.65,16.35S74.9,9.21,69.08,4.82c-9.33-7-14.82.09-14.82.09A89.35,89.35,0,0,0,40.17,3.54,79.84,79.84,0,0,0,23.24,4.91S17.3-3.42,8.15,1.62C-2.35,7.39,3,17.72,3,17.72S-16.69,61.63,44.56,58.8C90.22,56.7,72.65,16.35,72.65,16.35ZM20.1,25.62a3,3,0,0,1-1.92,2.71,2.07,2.07,0,0,1-2.47-2c.09-.8.11-2.27,1.55-2.71A2.18,2.18,0,0,1,20.1,25.62Zm23,8.87c-4.73.08-8.59-1.49-7.52-4.11.72-1.76,2.63-2.27,7.36-2.36s6.82.39,7.44,2C51.37,32.66,47.8,34.4,43.07,34.49Zm24-7.62c-.16,1.48-1,2.45-2.33,2.38a2.18,2.18,0,0,1-2-2.43c.09-1,.86-2.3,2.07-2.3A2.52,2.52,0,0,1,67,26.87Z"/></g></g></svg>