<svg xmlns="http://www.w3.org/2000/svg" viewBox="0 0 71.73 65.15"><defs><style>.cls-1{fill:#dbadd6;}</style></defs><g id="Layer_2" data-name="Layer 2"><g id="Layer_1-2" data-name="Layer 1"><path class="cls-1" d="M67.36,15.89C57.47,4,48.61,12.78,48.61,12.78S49.61-1,35.15.06C17,1.44,19.41,15.34,19.41,15.34s-19-4-19.4,12C-.54,47.55,16.3,44.71,16.3,44.71S11.05,60.58,25.18,64.2c17.11,4.39,18.11-8,18.11-8s11.58,10.69,21.87-3.11c7.78-10.43,1.65-18.21,1.65-18.21S77.5,28.11,67.36,15.89Zm-30.59,19a5.74,5.74,0,1,1,5.73-5.73A5.74,5.74,0,0,1,36.77,34.86Z"/></g></g></svg>