<svg xmlns="http://www.w3.org/2000/svg" viewBox="0 0 120 120"><defs><style>.cls-1{fill:#dbadd6;}</style></defs><g id="Layer_2" data-name="Layer 2"><g id="Layer_1-2" data-name="Layer 1"><path class="cls-1" d="M44.67,109.38c-17.38,3.76-21-8.37-21-8.37-2.84-7.2-6.95-9.13-6.95-9.13-5.65-3.87.44-3.79.44-3.79,6.27.44,9.57,6.43,9.57,6.43,5.56,9.54,14.61,6.78,18.18,5.19.57-4,2.17-6.78,4-8.34C35,89.81,20.38,84.44,20.38,60.54A24,24,0,0,1,26.81,43.8c-.7-1.58-2.81-7.92.55-16.51,0,0,5.23-1.68,17.17,6.39a59.1,59.1,0,0,1,31.23,0c11.86-8.07,17.09-6.39,17.09-6.39,3.36,8.59,1.25,14.93.63,16.51a24.15,24.15,0,0,1,6.4,16.74c0,24-14.6,29.24-28.49,30.78,2.18,1.87,4.21,5.69,4.21,11.54,0,8.32-.08,15-.08,17.06A60.84,60.84,0,0,0,120,61C120,27.31,93.14,0,60,0S0,27.31,0,61c0,28.33,19,52.14,44.75,59h0C44.74,118.51,44.69,114.58,44.67,109.38Z"/></g></g></svg>