<svg xmlns="http://www.w3.org/2000/svg" viewBox="0 0 120 120"><defs><style>.cls-1{fill:#dbadd6;}</style></defs><g id="Layer_2" data-name="Layer 2"><g id="Layer_1-2" data-name="Layer 1"><path class="cls-1" d="M60,0a60,60,0,1,0,60,60A60,60,0,0,0,60,0ZM40.54,95.24H25.93v-47H40.54ZM33.23,41.77a8.51,8.51,0,1,1,8.46-8.54A8.53,8.53,0,0,1,33.23,41.77Zm62,53.46H80.64V72.33c0-5.46-.11-12.46-7.6-12.46s-8.76,5.93-8.76,12.07V95.23H49.69V48.18h14V54.6h.2c2-3.7,6.72-7.6,13.82-7.6,14.78,0,17.51,9.74,17.51,22.39Z"/></g></g></svg>