<svg xmlns="http://www.w3.org/2000/svg" viewBox="0 0 60.81 75.16"><defs><style>.cls-1{fill:#dbadd6;}</style></defs><g id="Layer_2" data-name="Layer 2"><g id="Layer_1-2" data-name="Layer 1"><path class="cls-1" d="M56.76,58.6C70.73,35,45.35,20.08,29.13,25.42a4.42,4.42,0,0,1-2.44-.31C22.52,24,7.73,21.63,1.16,42.5-7.83,71.07,37.78,90.72,56.76,58.6Z"/><path class="cls-1" d="M30.4,22.28s9.8-.14,13.58-5.49c3.11-4.41,1.37-13.3,1.37-13.3S38.5,6.25,34.71,11.17C31.16,15.79,30.4,22.28,30.4,22.28Z"/><path class="cls-1" d="M29.05,21.82a61.36,61.36,0,0,1,2.38-10.11C32.87,7.14,29.61,0,29.61,0a13.25,13.25,0,0,0-6.29,7.55C21.47,13.63,29.05,21.82,29.05,21.82Z"/></g></g></svg>