<svg xmlns="http://www.w3.org/2000/svg" viewBox="0 0 56.74 69.97"><defs><style>.cls-1{fill:#dbadd6;}</style></defs><g id="Layer_2" data-name="Layer 2"><g id="Layer_1-2" data-name="Layer 1"><path class="cls-1" d="M28.91,12.6C9.49,12-.06,20.84,0,28.43.16,49.77,12.69,70,30,70c12.26,0,27.1-18.66,26.76-41.26C56.66,23.38,51,13.33,28.91,12.6Zm-19.45,22L7.78,27.92l2.5-.63L12,34ZM20.05,48.85H17.47V41.92h2.58Zm7.7-26.18.62,6.91-2.57.23-.62-6.91Zm.42,38.71-2.52-.57,1.36-6,2.52.57Zm8.17-13.25-1.11-6.84,2.54-.41,1.12,6.84Zm8.92-14.52-2.48-.72,1.94-6.65L47.2,27Z"/><path class="cls-1" d="M18.81,11.32a52.81,52.81,0,0,1,10.25-.82c2.16.08,8.51,1.28,8.51,1.28S45.85,6.14,40.31,3c-3.38-1.92-6.25,2.57-6.25,2.57S34.26,0,29.32,0c-5.58,0-5.71,5.37-5.71,5.37S19.62-.29,16,2.72C11.49,6.42,18.81,11.32,18.81,11.32Z"/></g></g></svg>