<?xml version="1.0" standalone="no"?>
<!DOCTYPE svg PUBLIC "-//W3C//DTD SVG 20010904//EN"
 "http://www.w3.org/TR/2001/REC-SVG-20010904/DTD/svg10.dtd">
<svg version="1.0" xmlns="http://www.w3.org/2000/svg"
 width="756.000000pt" height="756.000000pt" viewBox="0 0 756.000000 756.000000"
 preserveAspectRatio="xMidYMid meet">
<metadata>
Created by potrace 1.11, written by Peter Selinger 2001-2013
</metadata>
<g transform="translate(0.000000,756.000000) scale(0.100000,-0.100000)"
fill="#000000" stroke="none">
<path d="M6868 6844 c-2 -1 -24 -5 -50 -8 -221 -30 -492 -205 -646 -418 -18
-27 -37 -48 -41 -48 -3 0 -29 19 -56 42 -102 84 -230 157 -385 218 -30 12 -62
23 -70 25 -8 2 -49 12 -90 23 -178 48 -318 65 -560 66 -144 1 -344 -9 -373
-19 -6 -2 -25 -6 -42 -8 -470 -69 -847 -311 -1020 -656 -42 -82 -92 -232 -101
-299 -3 -26 -8 -50 -10 -53 -9 -15 -19 -186 -18 -309 2 -186 33 -359 92 -505
156 -389 536 -653 1066 -739 16 -3 30 -7 32 -9 2 -2 -20 -16 -48 -32 -73 -39
-293 -185 -348 -231 -92 -77 -217 -211 -264 -283 -91 -137 -134 -285 -134
-457 -1 -331 163 -536 517 -648 178 -56 288 -66 806 -71 215 -2 415 -6 445 -9
137 -16 281 -57 362 -104 98 -56 194 -177 226 -282 38 -124 33 -311 -13 -452
-107 -329 -467 -558 -955 -605 -96 -10 -350 -9 -460 1 -394 34 -708 202 -810
432 -53 122 -71 300 -41 424 30 123 103 251 203 356 l59 62 -31 61 c-17 33
-35 63 -40 66 -13 8 -242 -71 -347 -121 -267 -125 -445 -310 -498 -519 -18
-70 -18 -198 1 -269 53 -201 227 -364 504 -471 178 -69 389 -121 570 -141 30
-3 66 -8 80 -10 154 -26 830 -25 992 1 12 2 46 6 73 10 132 17 293 49 422 85
715 199 1170 631 1260 1195 10 63 10 322 1 395 -39 296 -217 543 -494 687
-147 76 -381 155 -499 168 -15 2 -104 16 -128 20 -65 13 -240 18 -742 20 -552
2 -561 3 -618 24 -113 44 -166 137 -153 270 12 125 99 250 249 361 l59 44 156
2 c148 1 308 11 321 18 3 2 29 6 57 10 150 18 338 76 499 156 264 131 446 314
548 552 39 91 81 244 94 343 10 77 10 385 0 450 -4 28 -10 66 -13 85 -20 134
-102 335 -180 441 l-33 45 26 45 c86 147 227 272 411 363 l73 37 -14 -28 c-46
-88 -79 -253 -79 -383 1 -164 48 -270 156 -351 67 -51 124 -68 226 -66 74 2
94 6 150 34 36 18 86 53 112 79 47 47 100 141 112 199 3 17 9 41 12 55 7 35 7
178 -1 220 -20 117 -70 215 -145 288 -84 80 -197 122 -336 126 -46 2 -85 2
-86 0z m-1794 -278 c178 -83 275 -338 303 -796 14 -216 6 -733 -11 -827 -2
-10 -7 -43 -10 -74 -7 -62 -9 -70 -26 -144 -6 -27 -14 -61 -16 -75 -9 -44 -56
-154 -89 -205 -95 -149 -231 -201 -387 -149 -71 23 -156 110 -201 206 -58 123
-94 279 -112 483 -3 39 -8 93 -10 120 -5 55 -5 560 -1 640 5 81 17 213 21 233
2 11 6 43 10 73 29 225 127 429 242 500 82 51 198 57 287 15z"/>
<path d="M1858 6775 c-1 -1 -57 -5 -123 -9 -258 -12 -491 -69 -715 -174 -230
-107 -443 -309 -573 -543 -53 -94 -119 -287 -132 -384 -3 -22 -9 -67 -15 -100
-9 -60 -7 -417 3 -465 3 -14 8 -42 11 -62 18 -118 62 -259 118 -372 128 -261
375 -472 688 -589 210 -78 390 -107 661 -107 162 0 191 3 384 36 48 9 195 59
260 90 179 84 371 252 495 430 52 75 130 223 130 247 0 8 -20 18 -50 25 l-51
12 -102 -103 c-119 -120 -180 -163 -302 -216 -283 -122 -597 -125 -830 -8
-151 75 -300 226 -351 354 -8 21 -19 47 -24 58 -64 146 -96 448 -75 717 11
144 20 200 51 321 82 323 246 554 467 655 184 85 479 71 626 -31 l44 -30 -54
-17 c-174 -54 -317 -178 -355 -307 -23 -78 -15 -182 18 -253 66 -144 235 -227
460 -228 221 0 393 90 470 246 27 54 32 77 35 148 9 308 -260 536 -732 620
-16 3 -43 7 -60 10 -51 10 -85 12 -220 19 -71 3 -135 8 -142 10 -6 2 -13 2
-15 0z"/>
<path d="M2325 3763 c-132 -21 -223 -58 -307 -127 -58 -47 -141 -160 -154
-210 -6 -27 -7 -27 -40 32 -62 109 -197 213 -327 253 -122 37 -287 12 -402
-59 -131 -82 -216 -231 -220 -390 -3 -117 23 -209 86 -304 l38 -56 -43 19
c-57 25 -105 33 -197 31 -243 -3 -469 -171 -534 -397 -20 -67 -26 -176 -14
-241 5 -27 11 -58 13 -69 8 -40 47 -128 82 -182 73 -114 221 -228 324 -248 73
-14 71 -11 44 -59 -14 -24 -31 -73 -38 -108 -43 -206 60 -418 285 -587 278
-210 538 -265 756 -160 112 54 221 181 239 278 9 43 15 42 57 -4 140 -151 388
-194 569 -98 216 113 318 407 227 653 -11 30 -25 60 -31 67 -6 7 -7 13 -2 14
5 0 16 2 24 4 8 2 28 6 45 9 61 12 154 67 218 130 105 104 168 256 161 392
-11 242 -210 463 -437 487 -27 3 -51 7 -53 10 -3 3 11 26 31 52 133 175 140
461 17 659 -63 102 -188 187 -293 201 -74 9 -103 11 -124 8z m-425 -918 c101
-19 234 -95 294 -168 184 -227 138 -565 -105 -774 -142 -123 -374 -187 -544
-151 -69 14 -162 59 -214 105 -192 164 -210 509 -40 763 59 88 101 121 239
186 98 46 245 62 370 39z"/>
</g>
</svg>
